<mxfile host="app.diagrams.net" agent="Mozilla/5.0 (Windows NT 10.0; Win64; x64) AppleWebKit/537.36 (KHTML, like Gecko) Chrome/128.0.0.0 Safari/537.36 Edg/128.0.0.0" version="24.7.7">
  <diagram id="e76AekJ_lFZTw1YeR-KG" name="Página-1">
    <mxGraphModel dx="8041" dy="2355" grid="1" gridSize="10" guides="1" tooltips="1" connect="1" arrows="1" fold="1" page="1" pageScale="1" pageWidth="827" pageHeight="1169" math="0" shadow="0">
      <root>
        <mxCell id="0" />
        <mxCell id="1" parent="0" />
        <mxCell id="eZbgHdstOL7PG3QPFfyQ-256" value="UI" style="shape=folder;fontStyle=1;tabWidth=110;tabHeight=30;tabPosition=left;html=1;boundedLbl=1;labelInHeader=1;" parent="1" vertex="1">
          <mxGeometry x="-2350" y="40" width="2270" height="870" as="geometry" />
        </mxCell>
        <mxCell id="eZbgHdstOL7PG3QPFfyQ-210" value="LG" style="shape=folder;fontStyle=1;tabWidth=110;tabHeight=30;tabPosition=left;html=1;boundedLbl=1;labelInHeader=1;" parent="1" vertex="1">
          <mxGeometry x="-2350" y="930" width="2270" height="460" as="geometry" />
        </mxCell>
        <mxCell id="eZbgHdstOL7PG3QPFfyQ-126" value="Persistencia" style="shape=folder;fontStyle=1;tabWidth=110;tabHeight=30;tabPosition=left;html=1;boundedLbl=1;labelInHeader=1;" parent="1" vertex="1">
          <mxGeometry x="-2280" y="1600" width="2150" height="690" as="geometry" />
        </mxCell>
        <mxCell id="eZbgHdstOL7PG3QPFfyQ-68" value="EC" style="shape=folder;fontStyle=1;tabWidth=110;tabHeight=30;tabPosition=left;html=1;boundedLbl=1;labelInHeader=1;" parent="1" vertex="1">
          <mxGeometry x="70" y="670" width="730" height="950" as="geometry" />
        </mxCell>
        <mxCell id="eZbgHdstOL7PG3QPFfyQ-1" value="Usuario" style="swimlane;fontStyle=1;align=center;verticalAlign=top;childLayout=stackLayout;horizontal=1;startSize=26;horizontalStack=0;resizeParent=1;resizeParentMax=0;resizeLast=0;collapsible=1;marginBottom=0;" parent="1" vertex="1">
          <mxGeometry x="625" y="740" width="160" height="138" as="geometry" />
        </mxCell>
        <mxCell id="eZbgHdstOL7PG3QPFfyQ-5" value="- nomUsuario : string" style="text;strokeColor=none;fillColor=none;align=left;verticalAlign=top;spacingLeft=4;spacingRight=4;overflow=hidden;rotatable=0;points=[[0,0.5],[1,0.5]];portConstraint=eastwest;" parent="eZbgHdstOL7PG3QPFfyQ-1" vertex="1">
          <mxGeometry y="26" width="160" height="26" as="geometry" />
        </mxCell>
        <mxCell id="eZbgHdstOL7PG3QPFfyQ-6" value="- nomCompleto : string" style="text;strokeColor=none;fillColor=none;align=left;verticalAlign=top;spacingLeft=4;spacingRight=4;overflow=hidden;rotatable=0;points=[[0,0.5],[1,0.5]];portConstraint=eastwest;" parent="eZbgHdstOL7PG3QPFfyQ-1" vertex="1">
          <mxGeometry y="52" width="160" height="26" as="geometry" />
        </mxCell>
        <mxCell id="eZbgHdstOL7PG3QPFfyQ-2" value="- cedula : int" style="text;strokeColor=none;fillColor=none;align=left;verticalAlign=top;spacingLeft=4;spacingRight=4;overflow=hidden;rotatable=0;points=[[0,0.5],[1,0.5]];portConstraint=eastwest;" parent="eZbgHdstOL7PG3QPFfyQ-1" vertex="1">
          <mxGeometry y="78" width="160" height="26" as="geometry" />
        </mxCell>
        <mxCell id="eZbgHdstOL7PG3QPFfyQ-3" value="" style="line;strokeWidth=1;fillColor=none;align=left;verticalAlign=middle;spacingTop=-1;spacingLeft=3;spacingRight=3;rotatable=0;labelPosition=right;points=[];portConstraint=eastwest;" parent="eZbgHdstOL7PG3QPFfyQ-1" vertex="1">
          <mxGeometry y="104" width="160" height="8" as="geometry" />
        </mxCell>
        <mxCell id="eZbgHdstOL7PG3QPFfyQ-4" value=" " style="text;strokeColor=none;fillColor=none;align=left;verticalAlign=top;spacingLeft=4;spacingRight=4;overflow=hidden;rotatable=0;points=[[0,0.5],[1,0.5]];portConstraint=eastwest;" parent="eZbgHdstOL7PG3QPFfyQ-1" vertex="1">
          <mxGeometry y="112" width="160" height="26" as="geometry" />
        </mxCell>
        <mxCell id="eZbgHdstOL7PG3QPFfyQ-7" value="Privados&#xa;" style="swimlane;fontStyle=1;align=center;verticalAlign=top;childLayout=stackLayout;horizontal=1;startSize=26;horizontalStack=0;resizeParent=1;resizeParentMax=0;resizeLast=0;collapsible=1;marginBottom=0;" parent="1" vertex="1">
          <mxGeometry x="430" y="1180" width="170" height="86" as="geometry" />
        </mxCell>
        <mxCell id="eZbgHdstOL7PG3QPFfyQ-8" value="- fechaCaducidad : DateTime" style="text;strokeColor=none;fillColor=none;align=left;verticalAlign=top;spacingLeft=4;spacingRight=4;overflow=hidden;rotatable=0;points=[[0,0.5],[1,0.5]];portConstraint=eastwest;" parent="eZbgHdstOL7PG3QPFfyQ-7" vertex="1">
          <mxGeometry y="26" width="170" height="26" as="geometry" />
        </mxCell>
        <mxCell id="eZbgHdstOL7PG3QPFfyQ-9" value="" style="line;strokeWidth=1;fillColor=none;align=left;verticalAlign=middle;spacingTop=-1;spacingLeft=3;spacingRight=3;rotatable=0;labelPosition=right;points=[];portConstraint=eastwest;" parent="eZbgHdstOL7PG3QPFfyQ-7" vertex="1">
          <mxGeometry y="52" width="170" height="8" as="geometry" />
        </mxCell>
        <mxCell id="eZbgHdstOL7PG3QPFfyQ-10" value=" " style="text;strokeColor=none;fillColor=none;align=left;verticalAlign=top;spacingLeft=4;spacingRight=4;overflow=hidden;rotatable=0;points=[[0,0.5],[1,0.5]];portConstraint=eastwest;" parent="eZbgHdstOL7PG3QPFfyQ-7" vertex="1">
          <mxGeometry y="60" width="170" height="26" as="geometry" />
        </mxCell>
        <mxCell id="eZbgHdstOL7PG3QPFfyQ-19" value="Mensajes" style="swimlane;fontStyle=3;align=center;verticalAlign=top;childLayout=stackLayout;horizontal=1;startSize=26;horizontalStack=0;resizeParent=1;resizeParentMax=0;resizeLast=0;collapsible=1;marginBottom=0;" parent="1" vertex="1">
          <mxGeometry x="270" y="740" width="160" height="164" as="geometry" />
        </mxCell>
        <mxCell id="eZbgHdstOL7PG3QPFfyQ-25" value="- numMensaje : int" style="text;strokeColor=none;fillColor=none;align=left;verticalAlign=top;spacingLeft=4;spacingRight=4;overflow=hidden;rotatable=0;points=[[0,0.5],[1,0.5]];portConstraint=eastwest;" parent="eZbgHdstOL7PG3QPFfyQ-19" vertex="1">
          <mxGeometry y="26" width="160" height="26" as="geometry" />
        </mxCell>
        <mxCell id="eZbgHdstOL7PG3QPFfyQ-24" value="- fechaGen : DateTime" style="text;strokeColor=none;fillColor=none;align=left;verticalAlign=top;spacingLeft=4;spacingRight=4;overflow=hidden;rotatable=0;points=[[0,0.5],[1,0.5]];portConstraint=eastwest;" parent="eZbgHdstOL7PG3QPFfyQ-19" vertex="1">
          <mxGeometry y="52" width="160" height="26" as="geometry" />
        </mxCell>
        <mxCell id="eZbgHdstOL7PG3QPFfyQ-23" value="- asunto : string" style="text;strokeColor=none;fillColor=none;align=left;verticalAlign=top;spacingLeft=4;spacingRight=4;overflow=hidden;rotatable=0;points=[[0,0.5],[1,0.5]];portConstraint=eastwest;" parent="eZbgHdstOL7PG3QPFfyQ-19" vertex="1">
          <mxGeometry y="78" width="160" height="26" as="geometry" />
        </mxCell>
        <mxCell id="eZbgHdstOL7PG3QPFfyQ-20" value="- texto : string" style="text;strokeColor=none;fillColor=none;align=left;verticalAlign=top;spacingLeft=4;spacingRight=4;overflow=hidden;rotatable=0;points=[[0,0.5],[1,0.5]];portConstraint=eastwest;" parent="eZbgHdstOL7PG3QPFfyQ-19" vertex="1">
          <mxGeometry y="104" width="160" height="26" as="geometry" />
        </mxCell>
        <mxCell id="eZbgHdstOL7PG3QPFfyQ-21" value="" style="line;strokeWidth=1;fillColor=none;align=left;verticalAlign=middle;spacingTop=-1;spacingLeft=3;spacingRight=3;rotatable=0;labelPosition=right;points=[];portConstraint=eastwest;" parent="eZbgHdstOL7PG3QPFfyQ-19" vertex="1">
          <mxGeometry y="130" width="160" height="8" as="geometry" />
        </mxCell>
        <mxCell id="eZbgHdstOL7PG3QPFfyQ-22" value=" " style="text;strokeColor=none;fillColor=none;align=left;verticalAlign=top;spacingLeft=4;spacingRight=4;overflow=hidden;rotatable=0;points=[[0,0.5],[1,0.5]];portConstraint=eastwest;" parent="eZbgHdstOL7PG3QPFfyQ-19" vertex="1">
          <mxGeometry y="138" width="160" height="26" as="geometry" />
        </mxCell>
        <mxCell id="eZbgHdstOL7PG3QPFfyQ-30" value="Comunes&#xa;" style="swimlane;fontStyle=1;align=center;verticalAlign=top;childLayout=stackLayout;horizontal=1;startSize=26;horizontalStack=0;resizeParent=1;resizeParentMax=0;resizeLast=0;collapsible=1;marginBottom=0;" parent="1" vertex="1">
          <mxGeometry x="110" y="1180" width="160" height="86" as="geometry" />
        </mxCell>
        <mxCell id="eZbgHdstOL7PG3QPFfyQ-31" value=" " style="text;strokeColor=none;fillColor=none;align=left;verticalAlign=top;spacingLeft=4;spacingRight=4;overflow=hidden;rotatable=0;points=[[0,0.5],[1,0.5]];portConstraint=eastwest;" parent="eZbgHdstOL7PG3QPFfyQ-30" vertex="1">
          <mxGeometry y="26" width="160" height="26" as="geometry" />
        </mxCell>
        <mxCell id="eZbgHdstOL7PG3QPFfyQ-32" value="" style="line;strokeWidth=1;fillColor=none;align=left;verticalAlign=middle;spacingTop=-1;spacingLeft=3;spacingRight=3;rotatable=0;labelPosition=right;points=[];portConstraint=eastwest;" parent="eZbgHdstOL7PG3QPFfyQ-30" vertex="1">
          <mxGeometry y="52" width="160" height="8" as="geometry" />
        </mxCell>
        <mxCell id="eZbgHdstOL7PG3QPFfyQ-33" value=" " style="text;strokeColor=none;fillColor=none;align=left;verticalAlign=top;spacingLeft=4;spacingRight=4;overflow=hidden;rotatable=0;points=[[0,0.5],[1,0.5]];portConstraint=eastwest;" parent="eZbgHdstOL7PG3QPFfyQ-30" vertex="1">
          <mxGeometry y="60" width="160" height="26" as="geometry" />
        </mxCell>
        <mxCell id="eZbgHdstOL7PG3QPFfyQ-38" value="Categoria" style="swimlane;fontStyle=1;align=center;verticalAlign=top;childLayout=stackLayout;horizontal=1;startSize=26;horizontalStack=0;resizeParent=1;resizeParentMax=0;resizeLast=0;collapsible=1;marginBottom=0;" parent="1" vertex="1">
          <mxGeometry x="110" y="1460" width="160" height="112" as="geometry" />
        </mxCell>
        <mxCell id="eZbgHdstOL7PG3QPFfyQ-42" value="- codCategoria : string" style="text;strokeColor=none;fillColor=none;align=left;verticalAlign=top;spacingLeft=4;spacingRight=4;overflow=hidden;rotatable=0;points=[[0,0.5],[1,0.5]];portConstraint=eastwest;" parent="eZbgHdstOL7PG3QPFfyQ-38" vertex="1">
          <mxGeometry y="26" width="160" height="26" as="geometry" />
        </mxCell>
        <mxCell id="eZbgHdstOL7PG3QPFfyQ-39" value="- nombre : string" style="text;strokeColor=none;fillColor=none;align=left;verticalAlign=top;spacingLeft=4;spacingRight=4;overflow=hidden;rotatable=0;points=[[0,0.5],[1,0.5]];portConstraint=eastwest;" parent="eZbgHdstOL7PG3QPFfyQ-38" vertex="1">
          <mxGeometry y="52" width="160" height="26" as="geometry" />
        </mxCell>
        <mxCell id="eZbgHdstOL7PG3QPFfyQ-40" value="" style="line;strokeWidth=1;fillColor=none;align=left;verticalAlign=middle;spacingTop=-1;spacingLeft=3;spacingRight=3;rotatable=0;labelPosition=right;points=[];portConstraint=eastwest;" parent="eZbgHdstOL7PG3QPFfyQ-38" vertex="1">
          <mxGeometry y="78" width="160" height="8" as="geometry" />
        </mxCell>
        <mxCell id="eZbgHdstOL7PG3QPFfyQ-41" value=" " style="text;strokeColor=none;fillColor=none;align=left;verticalAlign=top;spacingLeft=4;spacingRight=4;overflow=hidden;rotatable=0;points=[[0,0.5],[1,0.5]];portConstraint=eastwest;" parent="eZbgHdstOL7PG3QPFfyQ-38" vertex="1">
          <mxGeometry y="86" width="160" height="26" as="geometry" />
        </mxCell>
        <mxCell id="eZbgHdstOL7PG3QPFfyQ-45" value="" style="endArrow=none;html=1;exitX=0.75;exitY=0;exitDx=0;exitDy=0;entryX=0.25;entryY=0;entryDx=0;entryDy=0;" parent="1" source="eZbgHdstOL7PG3QPFfyQ-30" target="eZbgHdstOL7PG3QPFfyQ-7" edge="1">
          <mxGeometry width="50" height="50" relative="1" as="geometry">
            <mxPoint x="230" y="1180" as="sourcePoint" />
            <mxPoint x="472.5" y="1180" as="targetPoint" />
            <Array as="points">
              <mxPoint x="230" y="1060" />
              <mxPoint x="350" y="1060" />
              <mxPoint x="473" y="1060" />
            </Array>
          </mxGeometry>
        </mxCell>
        <mxCell id="eZbgHdstOL7PG3QPFfyQ-47" value="" style="endArrow=none;html=1;entryX=1;entryY=0.5;entryDx=0;entryDy=0;" parent="1" target="eZbgHdstOL7PG3QPFfyQ-49" edge="1">
          <mxGeometry width="50" height="50" relative="1" as="geometry">
            <mxPoint x="350" y="1060" as="sourcePoint" />
            <mxPoint x="350" y="940" as="targetPoint" />
            <Array as="points">
              <mxPoint x="350" y="970" />
            </Array>
          </mxGeometry>
        </mxCell>
        <mxCell id="eZbgHdstOL7PG3QPFfyQ-49" value="" style="triangle;whiteSpace=wrap;html=1;direction=north;" parent="1" vertex="1">
          <mxGeometry x="330" y="910" width="40" height="40" as="geometry" />
        </mxCell>
        <mxCell id="eZbgHdstOL7PG3QPFfyQ-52" value="" style="endArrow=open;endFill=1;endSize=12;html=1;entryX=-0.003;entryY=0.085;entryDx=0;entryDy=0;entryPerimeter=0;" parent="1" target="eZbgHdstOL7PG3QPFfyQ-2" edge="1">
          <mxGeometry width="160" relative="1" as="geometry">
            <mxPoint x="430" y="820" as="sourcePoint" />
            <mxPoint x="590" y="819" as="targetPoint" />
          </mxGeometry>
        </mxCell>
        <mxCell id="eZbgHdstOL7PG3QPFfyQ-53" value="" style="endArrow=open;endFill=1;endSize=12;html=1;entryX=0;entryY=0.5;entryDx=0;entryDy=0;exitX=1;exitY=0.5;exitDx=0;exitDy=0;" parent="1" source="eZbgHdstOL7PG3QPFfyQ-25" target="eZbgHdstOL7PG3QPFfyQ-5" edge="1">
          <mxGeometry width="160" relative="1" as="geometry">
            <mxPoint x="70" y="1190" as="sourcePoint" />
            <mxPoint x="230" y="1190" as="targetPoint" />
          </mxGeometry>
        </mxCell>
        <mxCell id="eZbgHdstOL7PG3QPFfyQ-54" value="1" style="text;html=1;align=center;verticalAlign=middle;resizable=0;points=[];autosize=1;" parent="1" vertex="1">
          <mxGeometry x="600" y="830" width="20" height="20" as="geometry" />
        </mxCell>
        <mxCell id="eZbgHdstOL7PG3QPFfyQ-55" value="&lt;font style=&quot;font-size: 28px&quot;&gt;*&lt;/font&gt;" style="text;html=1;align=center;verticalAlign=middle;resizable=0;points=[];autosize=1;" parent="1" vertex="1">
          <mxGeometry x="425" y="830" width="30" height="20" as="geometry" />
        </mxCell>
        <mxCell id="eZbgHdstOL7PG3QPFfyQ-56" value="&lt;font style=&quot;font-size: 28px&quot;&gt;*&lt;/font&gt;" style="text;html=1;align=center;verticalAlign=middle;resizable=0;points=[];autosize=1;" parent="1" vertex="1">
          <mxGeometry x="425" y="790" width="30" height="20" as="geometry" />
        </mxCell>
        <mxCell id="eZbgHdstOL7PG3QPFfyQ-57" value="&lt;span style=&quot;color: rgb(0, 0, 0); font-family: helvetica; font-size: 12px; font-style: normal; font-weight: 400; letter-spacing: normal; text-align: center; text-indent: 0px; text-transform: none; word-spacing: 0px; background-color: rgb(248, 249, 250); display: inline; float: none;&quot;&gt;1&lt;/span&gt;" style="text;whiteSpace=wrap;html=1;" parent="1" vertex="1">
          <mxGeometry x="610" y="780" width="30" height="30" as="geometry" />
        </mxCell>
        <mxCell id="eZbgHdstOL7PG3QPFfyQ-58" value="Receptor" style="text;html=1;align=center;verticalAlign=middle;resizable=0;points=[];autosize=1;" parent="1" vertex="1">
          <mxGeometry x="500" y="799" width="60" height="20" as="geometry" />
        </mxCell>
        <mxCell id="eZbgHdstOL7PG3QPFfyQ-59" value="Emisor" style="text;html=1;align=center;verticalAlign=middle;resizable=0;points=[];autosize=1;" parent="1" vertex="1">
          <mxGeometry x="500" y="760" width="50" height="20" as="geometry" />
        </mxCell>
        <mxCell id="eZbgHdstOL7PG3QPFfyQ-60" value="" style="endArrow=open;endFill=1;endSize=12;html=1;" parent="1" target="eZbgHdstOL7PG3QPFfyQ-38" edge="1">
          <mxGeometry width="160" relative="1" as="geometry">
            <mxPoint x="189" y="1269" as="sourcePoint" />
            <mxPoint x="330" y="1330.21" as="targetPoint" />
          </mxGeometry>
        </mxCell>
        <mxCell id="eZbgHdstOL7PG3QPFfyQ-61" value="1" style="text;html=1;align=center;verticalAlign=middle;resizable=0;points=[];autosize=1;" parent="1" vertex="1">
          <mxGeometry x="200" y="1440" width="20" height="20" as="geometry" />
        </mxCell>
        <mxCell id="eZbgHdstOL7PG3QPFfyQ-62" value="&lt;font style=&quot;font-size: 28px&quot;&gt;*&lt;/font&gt;" style="text;html=1;align=center;verticalAlign=middle;resizable=0;points=[];autosize=1;" parent="1" vertex="1">
          <mxGeometry x="190" y="1270" width="30" height="20" as="geometry" />
        </mxCell>
        <mxCell id="eZbgHdstOL7PG3QPFfyQ-76" value="Conexion" style="swimlane;fontStyle=1;align=center;verticalAlign=top;childLayout=stackLayout;horizontal=1;startSize=26;horizontalStack=0;resizeParent=1;resizeParentMax=0;resizeLast=0;collapsible=1;marginBottom=0;" parent="1" vertex="1">
          <mxGeometry x="-1351" y="2160" width="160" height="86" as="geometry" />
        </mxCell>
        <mxCell id="eZbgHdstOL7PG3QPFfyQ-77" value="- _cnn : string" style="text;strokeColor=none;fillColor=none;align=left;verticalAlign=top;spacingLeft=4;spacingRight=4;overflow=hidden;rotatable=0;points=[[0,0.5],[1,0.5]];portConstraint=eastwest;fontStyle=4" parent="eZbgHdstOL7PG3QPFfyQ-76" vertex="1">
          <mxGeometry y="26" width="160" height="26" as="geometry" />
        </mxCell>
        <mxCell id="eZbgHdstOL7PG3QPFfyQ-78" value="" style="line;strokeWidth=1;fillColor=none;align=left;verticalAlign=middle;spacingTop=-1;spacingLeft=3;spacingRight=3;rotatable=0;labelPosition=right;points=[];portConstraint=eastwest;" parent="eZbgHdstOL7PG3QPFfyQ-76" vertex="1">
          <mxGeometry y="52" width="160" height="8" as="geometry" />
        </mxCell>
        <mxCell id="eZbgHdstOL7PG3QPFfyQ-79" value=" " style="text;strokeColor=none;fillColor=none;align=left;verticalAlign=top;spacingLeft=4;spacingRight=4;overflow=hidden;rotatable=0;points=[[0,0.5],[1,0.5]];portConstraint=eastwest;" parent="eZbgHdstOL7PG3QPFfyQ-76" vertex="1">
          <mxGeometry y="60" width="160" height="26" as="geometry" />
        </mxCell>
        <mxCell id="eZbgHdstOL7PG3QPFfyQ-80" value="PersisteciaCompanias" style="swimlane;fontStyle=1;align=center;verticalAlign=top;childLayout=stackLayout;horizontal=1;startSize=26;horizontalStack=0;resizeParent=1;resizeParentMax=0;resizeLast=0;collapsible=1;marginBottom=0;" parent="1" vertex="1">
          <mxGeometry x="-1288" y="1760" width="330" height="190" as="geometry" />
        </mxCell>
        <mxCell id="eZbgHdstOL7PG3QPFfyQ-81" value=" " style="text;strokeColor=none;fillColor=none;align=left;verticalAlign=top;spacingLeft=4;spacingRight=4;overflow=hidden;rotatable=0;points=[[0,0.5],[1,0.5]];portConstraint=eastwest;" parent="eZbgHdstOL7PG3QPFfyQ-80" vertex="1">
          <mxGeometry y="26" width="330" height="26" as="geometry" />
        </mxCell>
        <mxCell id="eZbgHdstOL7PG3QPFfyQ-82" value="" style="line;strokeWidth=1;fillColor=none;align=left;verticalAlign=middle;spacingTop=-1;spacingLeft=3;spacingRight=3;rotatable=0;labelPosition=right;points=[];portConstraint=eastwest;" parent="eZbgHdstOL7PG3QPFfyQ-80" vertex="1">
          <mxGeometry y="52" width="330" height="8" as="geometry" />
        </mxCell>
        <mxCell id="eZbgHdstOL7PG3QPFfyQ-84" value="+ findCompany(pNameComp:string) Company" style="text;strokeColor=none;fillColor=none;align=left;verticalAlign=top;spacingLeft=4;spacingRight=4;overflow=hidden;rotatable=0;points=[[0,0.5],[1,0.5]];portConstraint=eastwest;fontStyle=4" parent="eZbgHdstOL7PG3QPFfyQ-80" vertex="1">
          <mxGeometry y="60" width="330" height="26" as="geometry" />
        </mxCell>
        <mxCell id="eZbgHdstOL7PG3QPFfyQ-85" value="+ CreateCompany(pCompany:Company )" style="text;strokeColor=none;fillColor=none;align=left;verticalAlign=top;spacingLeft=4;spacingRight=4;overflow=hidden;rotatable=0;points=[[0,0.5],[1,0.5]];portConstraint=eastwest;fontStyle=4" parent="eZbgHdstOL7PG3QPFfyQ-80" vertex="1">
          <mxGeometry y="86" width="330" height="26" as="geometry" />
        </mxCell>
        <mxCell id="eZbgHdstOL7PG3QPFfyQ-86" value="+ UpdateCompany(pCompany:Company)" style="text;strokeColor=none;fillColor=none;align=left;verticalAlign=top;spacingLeft=4;spacingRight=4;overflow=hidden;rotatable=0;points=[[0,0.5],[1,0.5]];portConstraint=eastwest;fontStyle=4" parent="eZbgHdstOL7PG3QPFfyQ-80" vertex="1">
          <mxGeometry y="112" width="330" height="26" as="geometry" />
        </mxCell>
        <mxCell id="eZbgHdstOL7PG3QPFfyQ-94" value="+ DeleteCompany(pCompany:Company)" style="text;strokeColor=none;fillColor=none;align=left;verticalAlign=top;spacingLeft=4;spacingRight=4;overflow=hidden;rotatable=0;points=[[0,0.5],[1,0.5]];portConstraint=eastwest;fontStyle=4" parent="eZbgHdstOL7PG3QPFfyQ-80" vertex="1">
          <mxGeometry y="138" width="330" height="26" as="geometry" />
        </mxCell>
        <mxCell id="eZbgHdstOL7PG3QPFfyQ-83" value="+ ListAllCompanies() : Lista de Companias" style="text;strokeColor=none;fillColor=none;align=left;verticalAlign=top;spacingLeft=4;spacingRight=4;overflow=hidden;rotatable=0;points=[[0,0.5],[1,0.5]];portConstraint=eastwest;fontStyle=4" parent="eZbgHdstOL7PG3QPFfyQ-80" vertex="1">
          <mxGeometry y="164" width="330" height="26" as="geometry" />
        </mxCell>
        <mxCell id="eZbgHdstOL7PG3QPFfyQ-87" value="PersisteciaTerminal" style="swimlane;fontStyle=1;align=center;verticalAlign=top;childLayout=stackLayout;horizontal=1;startSize=26;horizontalStack=0;resizeParent=1;resizeParentMax=0;resizeLast=0;collapsible=1;marginBottom=0;" parent="1" vertex="1">
          <mxGeometry x="-865" y="1754" width="330" height="346" as="geometry" />
        </mxCell>
        <mxCell id="eZbgHdstOL7PG3QPFfyQ-88" value=" " style="text;strokeColor=none;fillColor=none;align=left;verticalAlign=top;spacingLeft=4;spacingRight=4;overflow=hidden;rotatable=0;points=[[0,0.5],[1,0.5]];portConstraint=eastwest;" parent="eZbgHdstOL7PG3QPFfyQ-87" vertex="1">
          <mxGeometry y="26" width="330" height="26" as="geometry" />
        </mxCell>
        <mxCell id="eZbgHdstOL7PG3QPFfyQ-89" value="" style="line;strokeWidth=1;fillColor=none;align=left;verticalAlign=middle;spacingTop=-1;spacingLeft=3;spacingRight=3;rotatable=0;labelPosition=right;points=[];portConstraint=eastwest;" parent="eZbgHdstOL7PG3QPFfyQ-87" vertex="1">
          <mxGeometry y="52" width="330" height="8" as="geometry" />
        </mxCell>
        <mxCell id="eZbgHdstOL7PG3QPFfyQ-90" value="+ findNterminal(pCodTerm:string): nTerminal" style="text;strokeColor=none;fillColor=none;align=left;verticalAlign=top;spacingLeft=4;spacingRight=4;overflow=hidden;rotatable=0;points=[[0,0.5],[1,0.5]];portConstraint=eastwest;fontStyle=4" parent="eZbgHdstOL7PG3QPFfyQ-87" vertex="1">
          <mxGeometry y="60" width="330" height="26" as="geometry" />
        </mxCell>
        <mxCell id="eZbgHdstOL7PG3QPFfyQ-91" value="+ CreateNterminal(pNterminal:NationalTerminal)" style="text;strokeColor=none;fillColor=none;align=left;verticalAlign=top;spacingLeft=4;spacingRight=4;overflow=hidden;rotatable=0;points=[[0,0.5],[1,0.5]];portConstraint=eastwest;fontStyle=4" parent="eZbgHdstOL7PG3QPFfyQ-87" vertex="1">
          <mxGeometry y="86" width="330" height="26" as="geometry" />
        </mxCell>
        <mxCell id="eZbgHdstOL7PG3QPFfyQ-92" value="+ UpdateNterminal(pNterminal:NationalTerminal)" style="text;strokeColor=none;fillColor=none;align=left;verticalAlign=top;spacingLeft=4;spacingRight=4;overflow=hidden;rotatable=0;points=[[0,0.5],[1,0.5]];portConstraint=eastwest;fontStyle=4" parent="eZbgHdstOL7PG3QPFfyQ-87" vertex="1">
          <mxGeometry y="112" width="330" height="26" as="geometry" />
        </mxCell>
        <mxCell id="eZbgHdstOL7PG3QPFfyQ-93" value="+ DeleteNterminal(pNterminal:NationalTerminal)" style="text;strokeColor=none;fillColor=none;align=left;verticalAlign=top;spacingLeft=4;spacingRight=4;overflow=hidden;rotatable=0;points=[[0,0.5],[1,0.5]];portConstraint=eastwest;fontStyle=4" parent="eZbgHdstOL7PG3QPFfyQ-87" vertex="1">
          <mxGeometry y="138" width="330" height="26" as="geometry" />
        </mxCell>
        <mxCell id="pMHbVDj2jLhGAazth62V-1" value="+ ListNterminals () : Lista de Terminales Nacionales" style="text;strokeColor=none;fillColor=none;align=left;verticalAlign=top;spacingLeft=4;spacingRight=4;overflow=hidden;rotatable=0;points=[[0,0.5],[1,0.5]];portConstraint=eastwest;fontStyle=4" vertex="1" parent="eZbgHdstOL7PG3QPFfyQ-87">
          <mxGeometry y="164" width="330" height="26" as="geometry" />
        </mxCell>
        <mxCell id="pMHbVDj2jLhGAazth62V-13" value="+ findIterminal(pCodTerm:string): iTerminal" style="text;strokeColor=none;fillColor=none;align=left;verticalAlign=top;spacingLeft=4;spacingRight=4;overflow=hidden;rotatable=0;points=[[0,0.5],[1,0.5]];portConstraint=eastwest;fontStyle=4" vertex="1" parent="eZbgHdstOL7PG3QPFfyQ-87">
          <mxGeometry y="190" width="330" height="26" as="geometry" />
        </mxCell>
        <mxCell id="pMHbVDj2jLhGAazth62V-14" value="+ CreateIterminal(pIterminal:InternationalTerminal)" style="text;strokeColor=none;fillColor=none;align=left;verticalAlign=top;spacingLeft=4;spacingRight=4;overflow=hidden;rotatable=0;points=[[0,0.5],[1,0.5]];portConstraint=eastwest;fontStyle=4" vertex="1" parent="eZbgHdstOL7PG3QPFfyQ-87">
          <mxGeometry y="216" width="330" height="26" as="geometry" />
        </mxCell>
        <mxCell id="pMHbVDj2jLhGAazth62V-15" value="+ UpdateIterminal(pIterminal:InternationalTerminal)" style="text;strokeColor=none;fillColor=none;align=left;verticalAlign=top;spacingLeft=4;spacingRight=4;overflow=hidden;rotatable=0;points=[[0,0.5],[1,0.5]];portConstraint=eastwest;fontStyle=4" vertex="1" parent="eZbgHdstOL7PG3QPFfyQ-87">
          <mxGeometry y="242" width="330" height="26" as="geometry" />
        </mxCell>
        <mxCell id="pMHbVDj2jLhGAazth62V-16" value="+ DeleteIterminal(pIterminal:InternationalTerminal)" style="text;strokeColor=none;fillColor=none;align=left;verticalAlign=top;spacingLeft=4;spacingRight=4;overflow=hidden;rotatable=0;points=[[0,0.5],[1,0.5]];portConstraint=eastwest;fontStyle=4" vertex="1" parent="eZbgHdstOL7PG3QPFfyQ-87">
          <mxGeometry y="268" width="330" height="26" as="geometry" />
        </mxCell>
        <mxCell id="pMHbVDj2jLhGAazth62V-17" value="+ ListIterminals () : Lista de Terminales Internacionales" style="text;strokeColor=none;fillColor=none;align=left;verticalAlign=top;spacingLeft=4;spacingRight=4;overflow=hidden;rotatable=0;points=[[0,0.5],[1,0.5]];portConstraint=eastwest;fontStyle=4" vertex="1" parent="eZbgHdstOL7PG3QPFfyQ-87">
          <mxGeometry y="294" width="330" height="26" as="geometry" />
        </mxCell>
        <mxCell id="pMHbVDj2jLhGAazth62V-18" value="+ FindTerminal(pCodeTerminal:string): Terminal" style="text;strokeColor=none;fillColor=none;align=left;verticalAlign=top;spacingLeft=4;spacingRight=4;overflow=hidden;rotatable=0;points=[[0,0.5],[1,0.5]];portConstraint=eastwest;fontStyle=4" vertex="1" parent="eZbgHdstOL7PG3QPFfyQ-87">
          <mxGeometry y="320" width="330" height="26" as="geometry" />
        </mxCell>
        <mxCell id="eZbgHdstOL7PG3QPFfyQ-100" value="PersisteciaViajes" style="swimlane;fontStyle=1;align=center;verticalAlign=top;childLayout=stackLayout;horizontal=1;startSize=26;horizontalStack=0;resizeParent=1;resizeParentMax=0;resizeLast=0;collapsible=1;marginBottom=0;" parent="1" vertex="1">
          <mxGeometry x="-1995" y="1760" width="500" height="138" as="geometry" />
        </mxCell>
        <mxCell id="eZbgHdstOL7PG3QPFfyQ-101" value=" " style="text;strokeColor=none;fillColor=none;align=left;verticalAlign=top;spacingLeft=4;spacingRight=4;overflow=hidden;rotatable=0;points=[[0,0.5],[1,0.5]];portConstraint=eastwest;" parent="eZbgHdstOL7PG3QPFfyQ-100" vertex="1">
          <mxGeometry y="26" width="500" height="26" as="geometry" />
        </mxCell>
        <mxCell id="eZbgHdstOL7PG3QPFfyQ-102" value="" style="line;strokeWidth=1;fillColor=none;align=left;verticalAlign=middle;spacingTop=-1;spacingLeft=3;spacingRight=3;rotatable=0;labelPosition=right;points=[];portConstraint=eastwest;" parent="eZbgHdstOL7PG3QPFfyQ-100" vertex="1">
          <mxGeometry y="52" width="500" height="8" as="geometry" />
        </mxCell>
        <mxCell id="eZbgHdstOL7PG3QPFfyQ-103" value="+ AddTrip(pTrip:Trip)" style="text;strokeColor=none;fillColor=none;align=left;verticalAlign=top;spacingLeft=4;spacingRight=4;overflow=hidden;rotatable=0;points=[[0,0.5],[1,0.5]];portConstraint=eastwest;fontStyle=4" parent="eZbgHdstOL7PG3QPFfyQ-100" vertex="1">
          <mxGeometry y="60" width="500" height="26" as="geometry" />
        </mxCell>
        <mxCell id="eZbgHdstOL7PG3QPFfyQ-104" value="+ ListTripsByTerminalMY(pTerminal:Terminal, pMonth:string, pYear:string): Lista de viajes" style="text;strokeColor=none;fillColor=none;align=left;verticalAlign=top;spacingLeft=4;spacingRight=4;overflow=hidden;rotatable=0;points=[[0,0.5],[1,0.5]];portConstraint=eastwest;fontStyle=4" parent="eZbgHdstOL7PG3QPFfyQ-100" vertex="1">
          <mxGeometry y="86" width="500" height="26" as="geometry" />
        </mxCell>
        <mxCell id="pMHbVDj2jLhGAazth62V-19" value="+ ListAllTrips():Lista de Viajes" style="text;strokeColor=none;fillColor=none;align=left;verticalAlign=top;spacingLeft=4;spacingRight=4;overflow=hidden;rotatable=0;points=[[0,0.5],[1,0.5]];portConstraint=eastwest;fontStyle=4" vertex="1" parent="eZbgHdstOL7PG3QPFfyQ-100">
          <mxGeometry y="112" width="500" height="26" as="geometry" />
        </mxCell>
        <mxCell id="eZbgHdstOL7PG3QPFfyQ-120" value="" style="endArrow=none;dashed=1;html=1;startArrow=open;startFill=0;exitX=1;exitY=0.5;exitDx=0;exitDy=0;" parent="1" source="eZbgHdstOL7PG3QPFfyQ-77" edge="1">
          <mxGeometry width="50" height="50" relative="1" as="geometry">
            <mxPoint x="-1140" y="2200" as="sourcePoint" />
            <mxPoint x="-728" y="2110" as="targetPoint" />
            <Array as="points">
              <mxPoint x="-728" y="2200" />
              <mxPoint x="-728" y="2150" />
            </Array>
          </mxGeometry>
        </mxCell>
        <mxCell id="eZbgHdstOL7PG3QPFfyQ-121" value="" style="endArrow=none;dashed=1;html=1;exitX=0.75;exitY=0;exitDx=0;exitDy=0;startArrow=open;startFill=0;entryX=0.512;entryY=1.173;entryDx=0;entryDy=0;entryPerimeter=0;" parent="1" source="eZbgHdstOL7PG3QPFfyQ-76" edge="1" target="eZbgHdstOL7PG3QPFfyQ-83">
          <mxGeometry width="50" height="50" relative="1" as="geometry">
            <mxPoint x="-1260" y="2000" as="sourcePoint" />
            <mxPoint x="-940" y="1920" as="targetPoint" />
            <Array as="points">
              <mxPoint x="-1119" y="2090" />
            </Array>
          </mxGeometry>
        </mxCell>
        <mxCell id="eZbgHdstOL7PG3QPFfyQ-122" value="" style="endArrow=none;dashed=1;html=1;exitX=0.25;exitY=0;exitDx=0;exitDy=0;startArrow=open;startFill=0;" parent="1" source="eZbgHdstOL7PG3QPFfyQ-76" edge="1">
          <mxGeometry width="50" height="50" relative="1" as="geometry">
            <mxPoint x="-1513" y="2200" as="sourcePoint" />
            <mxPoint x="-1513" y="1900" as="targetPoint" />
            <Array as="points">
              <mxPoint x="-1310" y="2000" />
              <mxPoint x="-1513" y="2000" />
            </Array>
          </mxGeometry>
        </mxCell>
        <mxCell id="eZbgHdstOL7PG3QPFfyQ-129" value="" style="endArrow=open;dashed=1;html=1;exitX=0;exitY=0;exitDx=2150;exitDy=525;exitPerimeter=0;startArrow=none;startFill=0;endFill=0;strokeWidth=3;" parent="1" source="eZbgHdstOL7PG3QPFfyQ-126" edge="1">
          <mxGeometry width="50" height="50" relative="1" as="geometry">
            <mxPoint x="350" y="2110" as="sourcePoint" />
            <mxPoint x="440" y="1620" as="targetPoint" />
            <Array as="points">
              <mxPoint x="440" y="2125" />
            </Array>
          </mxGeometry>
        </mxCell>
        <mxCell id="eZbgHdstOL7PG3QPFfyQ-138" value="Logica Viajes" style="swimlane;fontStyle=1;align=center;verticalAlign=top;childLayout=stackLayout;horizontal=1;startSize=26;horizontalStack=0;resizeParent=1;resizeParentMax=0;resizeLast=0;collapsible=1;marginBottom=0;" parent="1" vertex="1">
          <mxGeometry x="-2090" y="1040" width="540" height="164" as="geometry" />
        </mxCell>
        <mxCell id="eZbgHdstOL7PG3QPFfyQ-139" value=" " style="text;strokeColor=none;fillColor=none;align=left;verticalAlign=top;spacingLeft=4;spacingRight=4;overflow=hidden;rotatable=0;points=[[0,0.5],[1,0.5]];portConstraint=eastwest;" parent="eZbgHdstOL7PG3QPFfyQ-138" vertex="1">
          <mxGeometry y="26" width="540" height="26" as="geometry" />
        </mxCell>
        <mxCell id="eZbgHdstOL7PG3QPFfyQ-140" value="" style="line;strokeWidth=1;fillColor=none;align=left;verticalAlign=middle;spacingTop=-1;spacingLeft=3;spacingRight=3;rotatable=0;labelPosition=right;points=[];portConstraint=eastwest;" parent="eZbgHdstOL7PG3QPFfyQ-138" vertex="1">
          <mxGeometry y="52" width="540" height="8" as="geometry" />
        </mxCell>
        <mxCell id="eZbgHdstOL7PG3QPFfyQ-141" value="+ AddTrip(pTrip:Trip )" style="text;strokeColor=none;fillColor=none;align=left;verticalAlign=top;spacingLeft=4;spacingRight=4;overflow=hidden;rotatable=0;points=[[0,0.5],[1,0.5]];portConstraint=eastwest;fontStyle=4" parent="eZbgHdstOL7PG3QPFfyQ-138" vertex="1">
          <mxGeometry y="60" width="540" height="26" as="geometry" />
        </mxCell>
        <mxCell id="eZbgHdstOL7PG3QPFfyQ-142" value="+ AgregarPrivado (pPrivado : pPrivados)" style="text;strokeColor=none;fillColor=none;align=left;verticalAlign=top;spacingLeft=4;spacingRight=4;overflow=hidden;rotatable=0;points=[[0,0.5],[1,0.5]];portConstraint=eastwest;fontStyle=4" parent="eZbgHdstOL7PG3QPFfyQ-138" vertex="1">
          <mxGeometry y="86" width="540" height="26" as="geometry" />
        </mxCell>
        <mxCell id="pMHbVDj2jLhGAazth62V-65" value="+ ListTripsByTerminalMY(pTerminal:Terminal, pMonth:string, pYear:string): Lista de viajes" style="text;strokeColor=none;fillColor=none;align=left;verticalAlign=top;spacingLeft=4;spacingRight=4;overflow=hidden;rotatable=0;points=[[0,0.5],[1,0.5]];portConstraint=eastwest;fontStyle=4" vertex="1" parent="eZbgHdstOL7PG3QPFfyQ-138">
          <mxGeometry y="112" width="540" height="26" as="geometry" />
        </mxCell>
        <mxCell id="pMHbVDj2jLhGAazth62V-66" value="+ ListAllTrips():Lista de Viajes" style="text;strokeColor=none;fillColor=none;align=left;verticalAlign=top;spacingLeft=4;spacingRight=4;overflow=hidden;rotatable=0;points=[[0,0.5],[1,0.5]];portConstraint=eastwest;fontStyle=4" vertex="1" parent="eZbgHdstOL7PG3QPFfyQ-138">
          <mxGeometry y="138" width="540" height="26" as="geometry" />
        </mxCell>
        <mxCell id="eZbgHdstOL7PG3QPFfyQ-146" value="Logica Compania" style="swimlane;fontStyle=1;align=center;verticalAlign=top;childLayout=stackLayout;horizontal=1;startSize=26;horizontalStack=0;resizeParent=1;resizeParentMax=0;resizeLast=0;collapsible=1;marginBottom=0;" parent="1" vertex="1">
          <mxGeometry x="-1360" y="1040" width="480" height="190" as="geometry" />
        </mxCell>
        <mxCell id="eZbgHdstOL7PG3QPFfyQ-147" value=" " style="text;strokeColor=none;fillColor=none;align=left;verticalAlign=top;spacingLeft=4;spacingRight=4;overflow=hidden;rotatable=0;points=[[0,0.5],[1,0.5]];portConstraint=eastwest;" parent="eZbgHdstOL7PG3QPFfyQ-146" vertex="1">
          <mxGeometry y="26" width="480" height="26" as="geometry" />
        </mxCell>
        <mxCell id="eZbgHdstOL7PG3QPFfyQ-148" value="" style="line;strokeWidth=1;fillColor=none;align=left;verticalAlign=middle;spacingTop=-1;spacingLeft=3;spacingRight=3;rotatable=0;labelPosition=right;points=[];portConstraint=eastwest;" parent="eZbgHdstOL7PG3QPFfyQ-146" vertex="1">
          <mxGeometry y="52" width="480" height="8" as="geometry" />
        </mxCell>
        <mxCell id="eZbgHdstOL7PG3QPFfyQ-150" value="+ Create(pCompany: Company)" style="text;strokeColor=none;fillColor=none;align=left;verticalAlign=top;spacingLeft=4;spacingRight=4;overflow=hidden;rotatable=0;points=[[0,0.5],[1,0.5]];portConstraint=eastwest;fontStyle=4" parent="eZbgHdstOL7PG3QPFfyQ-146" vertex="1">
          <mxGeometry y="60" width="480" height="26" as="geometry" />
        </mxCell>
        <mxCell id="eZbgHdstOL7PG3QPFfyQ-151" value="+ Delete (pCompany: Company)" style="text;strokeColor=none;fillColor=none;align=left;verticalAlign=top;spacingLeft=4;spacingRight=4;overflow=hidden;rotatable=0;points=[[0,0.5],[1,0.5]];portConstraint=eastwest;fontStyle=4" parent="eZbgHdstOL7PG3QPFfyQ-146" vertex="1">
          <mxGeometry y="86" width="480" height="26" as="geometry" />
        </mxCell>
        <mxCell id="eZbgHdstOL7PG3QPFfyQ-152" value="+ Update (pCompany: Company)" style="text;strokeColor=none;fillColor=none;align=left;verticalAlign=top;spacingLeft=4;spacingRight=4;overflow=hidden;rotatable=0;points=[[0,0.5],[1,0.5]];portConstraint=eastwest;fontStyle=4" parent="eZbgHdstOL7PG3QPFfyQ-146" vertex="1">
          <mxGeometry y="112" width="480" height="26" as="geometry" />
        </mxCell>
        <mxCell id="eZbgHdstOL7PG3QPFfyQ-153" value="+ Read (pCompany: String) : Company" style="text;strokeColor=none;fillColor=none;align=left;verticalAlign=top;spacingLeft=4;spacingRight=4;overflow=hidden;rotatable=0;points=[[0,0.5],[1,0.5]];portConstraint=eastwest;fontStyle=4" parent="eZbgHdstOL7PG3QPFfyQ-146" vertex="1">
          <mxGeometry y="138" width="480" height="26" as="geometry" />
        </mxCell>
        <mxCell id="eZbgHdstOL7PG3QPFfyQ-149" value="+ ListCompanies() : Lista de Companias" style="text;strokeColor=none;fillColor=none;align=left;verticalAlign=top;spacingLeft=4;spacingRight=4;overflow=hidden;rotatable=0;points=[[0,0.5],[1,0.5]];portConstraint=eastwest;fontStyle=4" parent="eZbgHdstOL7PG3QPFfyQ-146" vertex="1">
          <mxGeometry y="164" width="480" height="26" as="geometry" />
        </mxCell>
        <mxCell id="eZbgHdstOL7PG3QPFfyQ-154" value="" style="endArrow=none;dashed=1;html=1;strokeWidth=1;entryX=0.87;entryY=1.092;entryDx=0;entryDy=0;entryPerimeter=0;startArrow=open;startFill=0;exitX=0.551;exitY=0.002;exitDx=0;exitDy=0;exitPerimeter=0;" parent="1" source="eZbgHdstOL7PG3QPFfyQ-80" target="eZbgHdstOL7PG3QPFfyQ-149" edge="1">
          <mxGeometry width="50" height="50" relative="1" as="geometry">
            <mxPoint x="-320" y="1761" as="sourcePoint" />
            <mxPoint x="-280" y="1270" as="targetPoint" />
            <Array as="points">
              <mxPoint x="-940" y="1560" />
            </Array>
          </mxGeometry>
        </mxCell>
        <mxCell id="eZbgHdstOL7PG3QPFfyQ-156" value="" style="endArrow=none;dashed=1;html=1;strokeWidth=1;exitX=0.082;exitY=0;exitDx=0;exitDy=0;exitPerimeter=0;startArrow=open;startFill=0;" parent="1" source="eZbgHdstOL7PG3QPFfyQ-100" target="pMHbVDj2jLhGAazth62V-66" edge="1">
          <mxGeometry width="50" height="50" relative="1" as="geometry">
            <mxPoint x="-1680" y="1290" as="sourcePoint" />
            <mxPoint x="-1599.1400000000003" y="1260.004" as="targetPoint" />
          </mxGeometry>
        </mxCell>
        <mxCell id="eZbgHdstOL7PG3QPFfyQ-157" value="" style="endArrow=none;dashed=1;html=1;strokeWidth=1;entryX=0.563;entryY=1.181;entryDx=0;entryDy=0;entryPerimeter=0;startArrow=open;startFill=0;exitX=0.324;exitY=0.008;exitDx=0;exitDy=0;exitPerimeter=0;" parent="1" source="eZbgHdstOL7PG3QPFfyQ-87" target="pMHbVDj2jLhGAazth62V-64" edge="1">
          <mxGeometry width="50" height="50" relative="1" as="geometry">
            <mxPoint x="-402" y="1750" as="sourcePoint" />
            <mxPoint x="-421.32000000000016" y="1348.106" as="targetPoint" />
          </mxGeometry>
        </mxCell>
        <mxCell id="eZbgHdstOL7PG3QPFfyQ-160" value="" style="endArrow=none;dashed=1;html=1;strokeWidth=3;entryX=0.948;entryY=0.999;entryDx=0;entryDy=0;entryPerimeter=0;exitX=0;exitY=0.895;exitDx=0;exitDy=0;exitPerimeter=0;startArrow=open;startFill=0;" parent="1" source="eZbgHdstOL7PG3QPFfyQ-68" edge="1" target="eZbgHdstOL7PG3QPFfyQ-210">
          <mxGeometry width="50" height="50" relative="1" as="geometry">
            <mxPoint x="60" y="1520" as="sourcePoint" />
            <mxPoint x="-159.55000000000018" y="1350" as="targetPoint" />
            <Array as="points">
              <mxPoint x="-160" y="1520" />
            </Array>
          </mxGeometry>
        </mxCell>
        <mxCell id="eZbgHdstOL7PG3QPFfyQ-165" value="Mantenimiento Terminal Nacional" style="swimlane;fontStyle=1;align=center;verticalAlign=top;childLayout=stackLayout;horizontal=1;startSize=26;horizontalStack=0;resizeParent=1;resizeParentMax=0;resizeLast=0;collapsible=1;marginBottom=0;" parent="1" vertex="1">
          <mxGeometry x="-580" y="666" width="400" height="216" as="geometry" />
        </mxCell>
        <mxCell id="eZbgHdstOL7PG3QPFfyQ-166" value=" " style="text;strokeColor=none;fillColor=none;align=left;verticalAlign=top;spacingLeft=4;spacingRight=4;overflow=hidden;rotatable=0;points=[[0,0.5],[1,0.5]];portConstraint=eastwest;" parent="eZbgHdstOL7PG3QPFfyQ-165" vertex="1">
          <mxGeometry y="26" width="400" height="26" as="geometry" />
        </mxCell>
        <mxCell id="eZbgHdstOL7PG3QPFfyQ-167" value="" style="line;strokeWidth=1;fillColor=none;align=left;verticalAlign=middle;spacingTop=-1;spacingLeft=3;spacingRight=3;rotatable=0;labelPosition=right;points=[];portConstraint=eastwest;" parent="eZbgHdstOL7PG3QPFfyQ-165" vertex="1">
          <mxGeometry y="52" width="400" height="8" as="geometry" />
        </mxCell>
        <mxCell id="eZbgHdstOL7PG3QPFfyQ-229" value="# Page_Load (sender : object, e : EventArgs)" style="text;strokeColor=none;fillColor=none;align=left;verticalAlign=top;spacingLeft=4;spacingRight=4;overflow=hidden;rotatable=0;points=[[0,0.5],[1,0.5]];portConstraint=eastwest;" parent="eZbgHdstOL7PG3QPFfyQ-165" vertex="1">
          <mxGeometry y="60" width="400" height="26" as="geometry" />
        </mxCell>
        <mxCell id="eZbgHdstOL7PG3QPFfyQ-230" value="- CleanForm()" style="text;strokeColor=none;fillColor=none;align=left;verticalAlign=top;spacingLeft=4;spacingRight=4;overflow=hidden;rotatable=0;points=[[0,0.5],[1,0.5]];portConstraint=eastwest;" parent="eZbgHdstOL7PG3QPFfyQ-165" vertex="1">
          <mxGeometry y="86" width="400" height="26" as="geometry" />
        </mxCell>
        <mxCell id="eZbgHdstOL7PG3QPFfyQ-231" value="# btnSearch_Click(sender : object, e : EventArgs)" style="text;strokeColor=none;fillColor=none;align=left;verticalAlign=top;spacingLeft=4;spacingRight=4;overflow=hidden;rotatable=0;points=[[0,0.5],[1,0.5]];portConstraint=eastwest;" parent="eZbgHdstOL7PG3QPFfyQ-165" vertex="1">
          <mxGeometry y="112" width="400" height="26" as="geometry" />
        </mxCell>
        <mxCell id="eZbgHdstOL7PG3QPFfyQ-168" value="# btnCreate_Click(sender : object, e : EventArgs)" style="text;strokeColor=none;fillColor=none;align=left;verticalAlign=top;spacingLeft=4;spacingRight=4;overflow=hidden;rotatable=0;points=[[0,0.5],[1,0.5]];portConstraint=eastwest;" parent="eZbgHdstOL7PG3QPFfyQ-165" vertex="1">
          <mxGeometry y="138" width="400" height="26" as="geometry" />
        </mxCell>
        <mxCell id="pMHbVDj2jLhGAazth62V-75" value="# btnUpdate_Click(sender : object, e : EventArgs)" style="text;strokeColor=none;fillColor=none;align=left;verticalAlign=top;spacingLeft=4;spacingRight=4;overflow=hidden;rotatable=0;points=[[0,0.5],[1,0.5]];portConstraint=eastwest;" vertex="1" parent="eZbgHdstOL7PG3QPFfyQ-165">
          <mxGeometry y="164" width="400" height="26" as="geometry" />
        </mxCell>
        <mxCell id="pMHbVDj2jLhGAazth62V-76" value="# btnDelete_Click(sender : object, e : EventArgs)" style="text;strokeColor=none;fillColor=none;align=left;verticalAlign=top;spacingLeft=4;spacingRight=4;overflow=hidden;rotatable=0;points=[[0,0.5],[1,0.5]];portConstraint=eastwest;" vertex="1" parent="eZbgHdstOL7PG3QPFfyQ-165">
          <mxGeometry y="190" width="400" height="26" as="geometry" />
        </mxCell>
        <mxCell id="eZbgHdstOL7PG3QPFfyQ-169" value="" style="endArrow=none;dashed=1;html=1;strokeWidth=1;exitX=0.599;exitY=0;exitDx=0;exitDy=0;exitPerimeter=0;startArrow=open;startFill=0;fillColor=#d80073;strokeColor=#A50040;" parent="1" edge="1">
          <mxGeometry width="50" height="50" relative="1" as="geometry">
            <mxPoint x="-361.52000000000044" y="974" as="sourcePoint" />
            <mxPoint x="-362" y="890" as="targetPoint" />
          </mxGeometry>
        </mxCell>
        <mxCell id="eZbgHdstOL7PG3QPFfyQ-187" value="" style="endArrow=none;dashed=1;html=1;strokeWidth=1;exitX=0.582;exitY=0.002;exitDx=0;exitDy=0;exitPerimeter=0;startArrow=open;startFill=0;entryX=0.621;entryY=1.077;entryDx=0;entryDy=0;entryPerimeter=0;" parent="1" source="eZbgHdstOL7PG3QPFfyQ-146" edge="1">
          <mxGeometry width="50" height="50" relative="1" as="geometry">
            <mxPoint x="-1060" y="870" as="sourcePoint" />
            <mxPoint x="-1082.9699999999998" y="870.002" as="targetPoint" />
          </mxGeometry>
        </mxCell>
        <mxCell id="eZbgHdstOL7PG3QPFfyQ-188" value="Agregar Viaje" style="swimlane;fontStyle=1;align=center;verticalAlign=top;childLayout=stackLayout;horizontal=1;startSize=26;horizontalStack=0;resizeParent=1;resizeParentMax=0;resizeLast=0;collapsible=1;marginBottom=0;" parent="1" vertex="1">
          <mxGeometry x="-2090" y="610" width="400" height="138" as="geometry" />
        </mxCell>
        <mxCell id="eZbgHdstOL7PG3QPFfyQ-189" value=" " style="text;strokeColor=none;fillColor=none;align=left;verticalAlign=top;spacingLeft=4;spacingRight=4;overflow=hidden;rotatable=0;points=[[0,0.5],[1,0.5]];portConstraint=eastwest;" parent="eZbgHdstOL7PG3QPFfyQ-188" vertex="1">
          <mxGeometry y="26" width="400" height="26" as="geometry" />
        </mxCell>
        <mxCell id="eZbgHdstOL7PG3QPFfyQ-190" value="" style="line;strokeWidth=1;fillColor=none;align=left;verticalAlign=middle;spacingTop=-1;spacingLeft=3;spacingRight=3;rotatable=0;labelPosition=right;points=[];portConstraint=eastwest;" parent="eZbgHdstOL7PG3QPFfyQ-188" vertex="1">
          <mxGeometry y="52" width="400" height="8" as="geometry" />
        </mxCell>
        <mxCell id="eZbgHdstOL7PG3QPFfyQ-246" value="# Page_Load (sender : object, e : EventArgs)" style="text;strokeColor=none;fillColor=none;align=left;verticalAlign=top;spacingLeft=4;spacingRight=4;overflow=hidden;rotatable=0;points=[[0,0.5],[1,0.5]];portConstraint=eastwest;" parent="eZbgHdstOL7PG3QPFfyQ-188" vertex="1">
          <mxGeometry y="60" width="400" height="26" as="geometry" />
        </mxCell>
        <mxCell id="eZbgHdstOL7PG3QPFfyQ-247" value="- CleanForm() " style="text;strokeColor=none;fillColor=none;align=left;verticalAlign=top;spacingLeft=4;spacingRight=4;overflow=hidden;rotatable=0;points=[[0,0.5],[1,0.5]];portConstraint=eastwest;" parent="eZbgHdstOL7PG3QPFfyQ-188" vertex="1">
          <mxGeometry y="86" width="400" height="26" as="geometry" />
        </mxCell>
        <mxCell id="eZbgHdstOL7PG3QPFfyQ-250" value="# btnCreate_Click(sender : object, e : EventArgs)" style="text;strokeColor=none;fillColor=none;align=left;verticalAlign=top;spacingLeft=4;spacingRight=4;overflow=hidden;rotatable=0;points=[[0,0.5],[1,0.5]];portConstraint=eastwest;" parent="eZbgHdstOL7PG3QPFfyQ-188" vertex="1">
          <mxGeometry y="112" width="400" height="26" as="geometry" />
        </mxCell>
        <mxCell id="eZbgHdstOL7PG3QPFfyQ-192" value="" style="endArrow=none;dashed=1;html=1;strokeWidth=1;entryX=0.091;entryY=1.158;entryDx=0;entryDy=0;entryPerimeter=0;startArrow=open;startFill=0;" parent="1" target="eZbgHdstOL7PG3QPFfyQ-250" edge="1">
          <mxGeometry width="50" height="50" relative="1" as="geometry">
            <mxPoint x="-2052" y="1040" as="sourcePoint" />
            <mxPoint x="-2051.6000000000004" y="855.1980000000001" as="targetPoint" />
          </mxGeometry>
        </mxCell>
        <mxCell id="eZbgHdstOL7PG3QPFfyQ-193" value="Listar Companias" style="swimlane;fontStyle=1;align=center;verticalAlign=top;childLayout=stackLayout;horizontal=1;startSize=26;horizontalStack=0;resizeParent=1;resizeParentMax=0;resizeLast=0;collapsible=1;marginBottom=0;" parent="1" vertex="1">
          <mxGeometry x="-1338" y="524" width="430" height="86" as="geometry" />
        </mxCell>
        <mxCell id="eZbgHdstOL7PG3QPFfyQ-194" value=" " style="text;strokeColor=none;fillColor=none;align=left;verticalAlign=top;spacingLeft=4;spacingRight=4;overflow=hidden;rotatable=0;points=[[0,0.5],[1,0.5]];portConstraint=eastwest;" parent="eZbgHdstOL7PG3QPFfyQ-193" vertex="1">
          <mxGeometry y="26" width="430" height="26" as="geometry" />
        </mxCell>
        <mxCell id="eZbgHdstOL7PG3QPFfyQ-195" value="" style="line;strokeWidth=1;fillColor=none;align=left;verticalAlign=middle;spacingTop=-1;spacingLeft=3;spacingRight=3;rotatable=0;labelPosition=right;points=[];portConstraint=eastwest;" parent="eZbgHdstOL7PG3QPFfyQ-193" vertex="1">
          <mxGeometry y="52" width="430" height="8" as="geometry" />
        </mxCell>
        <mxCell id="eZbgHdstOL7PG3QPFfyQ-232" value="# Page_Load (sender : object, e : EventArgs)" style="text;strokeColor=none;fillColor=none;align=left;verticalAlign=top;spacingLeft=4;spacingRight=4;overflow=hidden;rotatable=0;points=[[0,0.5],[1,0.5]];portConstraint=eastwest;" parent="eZbgHdstOL7PG3QPFfyQ-193" vertex="1">
          <mxGeometry y="60" width="430" height="26" as="geometry" />
        </mxCell>
        <mxCell id="eZbgHdstOL7PG3QPFfyQ-204" value="Listar viajes terminal/mes/anio" style="swimlane;fontStyle=1;align=center;verticalAlign=top;childLayout=stackLayout;horizontal=1;startSize=26;horizontalStack=0;resizeParent=1;resizeParentMax=0;resizeLast=0;collapsible=1;marginBottom=0;" parent="1" vertex="1">
          <mxGeometry x="-2060" y="410" width="360" height="164" as="geometry" />
        </mxCell>
        <mxCell id="eZbgHdstOL7PG3QPFfyQ-205" value=" " style="text;strokeColor=none;fillColor=none;align=left;verticalAlign=top;spacingLeft=4;spacingRight=4;overflow=hidden;rotatable=0;points=[[0,0.5],[1,0.5]];portConstraint=eastwest;" parent="eZbgHdstOL7PG3QPFfyQ-204" vertex="1">
          <mxGeometry y="26" width="360" height="26" as="geometry" />
        </mxCell>
        <mxCell id="eZbgHdstOL7PG3QPFfyQ-206" value="" style="line;strokeWidth=1;fillColor=none;align=left;verticalAlign=middle;spacingTop=-1;spacingLeft=3;spacingRight=3;rotatable=0;labelPosition=right;points=[];portConstraint=eastwest;" parent="eZbgHdstOL7PG3QPFfyQ-204" vertex="1">
          <mxGeometry y="52" width="360" height="8" as="geometry" />
        </mxCell>
        <mxCell id="eZbgHdstOL7PG3QPFfyQ-242" value="# Page_Load (sender : object, e : EventArgs)" style="text;strokeColor=none;fillColor=none;align=left;verticalAlign=top;spacingLeft=4;spacingRight=4;overflow=hidden;rotatable=0;points=[[0,0.5],[1,0.5]];portConstraint=eastwest;" parent="eZbgHdstOL7PG3QPFfyQ-204" vertex="1">
          <mxGeometry y="60" width="360" height="26" as="geometry" />
        </mxCell>
        <mxCell id="eZbgHdstOL7PG3QPFfyQ-244" value="- CleanForm()" style="text;strokeColor=none;fillColor=none;align=left;verticalAlign=top;spacingLeft=4;spacingRight=4;overflow=hidden;rotatable=0;points=[[0,0.5],[1,0.5]];portConstraint=eastwest;" parent="eZbgHdstOL7PG3QPFfyQ-204" vertex="1">
          <mxGeometry y="86" width="360" height="26" as="geometry" />
        </mxCell>
        <mxCell id="eZbgHdstOL7PG3QPFfyQ-245" value="- ListAllTrips()" style="text;strokeColor=none;fillColor=none;align=left;verticalAlign=top;spacingLeft=4;spacingRight=4;overflow=hidden;rotatable=0;points=[[0,0.5],[1,0.5]];portConstraint=eastwest;" parent="eZbgHdstOL7PG3QPFfyQ-204" vertex="1">
          <mxGeometry y="112" width="360" height="26" as="geometry" />
        </mxCell>
        <mxCell id="eZbgHdstOL7PG3QPFfyQ-207" value="# btnSearch_Click(sender : object, e : EventArgs)" style="text;strokeColor=none;fillColor=none;align=left;verticalAlign=top;spacingLeft=4;spacingRight=4;overflow=hidden;rotatable=0;points=[[0,0.5],[1,0.5]];portConstraint=eastwest;" parent="eZbgHdstOL7PG3QPFfyQ-204" vertex="1">
          <mxGeometry y="138" width="360" height="26" as="geometry" />
        </mxCell>
        <mxCell id="eZbgHdstOL7PG3QPFfyQ-214" value="" style="endArrow=none;dashed=1;html=1;strokeWidth=3;startArrow=open;startFill=0;" parent="1" edge="1">
          <mxGeometry width="50" height="50" relative="1" as="geometry">
            <mxPoint x="435" y="700" as="sourcePoint" />
            <mxPoint x="-78" y="560" as="targetPoint" />
            <Array as="points">
              <mxPoint x="435" y="560" />
            </Array>
          </mxGeometry>
        </mxCell>
        <mxCell id="eZbgHdstOL7PG3QPFfyQ-219" value="Home" style="swimlane;fontStyle=1;align=center;verticalAlign=top;childLayout=stackLayout;horizontal=1;startSize=26;horizontalStack=0;resizeParent=1;resizeParentMax=0;resizeLast=0;collapsible=1;marginBottom=0;" parent="1" vertex="1">
          <mxGeometry x="-1420" y="130" width="160" height="86" as="geometry" />
        </mxCell>
        <mxCell id="eZbgHdstOL7PG3QPFfyQ-220" value=" " style="text;strokeColor=none;fillColor=none;align=left;verticalAlign=top;spacingLeft=4;spacingRight=4;overflow=hidden;rotatable=0;points=[[0,0.5],[1,0.5]];portConstraint=eastwest;" parent="eZbgHdstOL7PG3QPFfyQ-219" vertex="1">
          <mxGeometry y="26" width="160" height="26" as="geometry" />
        </mxCell>
        <mxCell id="eZbgHdstOL7PG3QPFfyQ-221" value="" style="line;strokeWidth=1;fillColor=none;align=left;verticalAlign=middle;spacingTop=-1;spacingLeft=3;spacingRight=3;rotatable=0;labelPosition=right;points=[];portConstraint=eastwest;" parent="eZbgHdstOL7PG3QPFfyQ-219" vertex="1">
          <mxGeometry y="52" width="160" height="8" as="geometry" />
        </mxCell>
        <mxCell id="eZbgHdstOL7PG3QPFfyQ-222" value=" " style="text;strokeColor=none;fillColor=none;align=left;verticalAlign=top;spacingLeft=4;spacingRight=4;overflow=hidden;rotatable=0;points=[[0,0.5],[1,0.5]];portConstraint=eastwest;" parent="eZbgHdstOL7PG3QPFfyQ-219" vertex="1">
          <mxGeometry y="60" width="160" height="26" as="geometry" />
        </mxCell>
        <mxCell id="pMHbVDj2jLhGAazth62V-51" value="Logica Terminal" style="swimlane;fontStyle=1;align=center;verticalAlign=top;childLayout=stackLayout;horizontal=1;startSize=26;horizontalStack=0;resizeParent=1;resizeParentMax=0;resizeLast=0;collapsible=1;marginBottom=0;" vertex="1" parent="1">
          <mxGeometry x="-590" y="980" width="330" height="346" as="geometry" />
        </mxCell>
        <mxCell id="pMHbVDj2jLhGAazth62V-52" value=" " style="text;strokeColor=none;fillColor=none;align=left;verticalAlign=top;spacingLeft=4;spacingRight=4;overflow=hidden;rotatable=0;points=[[0,0.5],[1,0.5]];portConstraint=eastwest;" vertex="1" parent="pMHbVDj2jLhGAazth62V-51">
          <mxGeometry y="26" width="330" height="26" as="geometry" />
        </mxCell>
        <mxCell id="pMHbVDj2jLhGAazth62V-53" value="" style="line;strokeWidth=1;fillColor=none;align=left;verticalAlign=middle;spacingTop=-1;spacingLeft=3;spacingRight=3;rotatable=0;labelPosition=right;points=[];portConstraint=eastwest;" vertex="1" parent="pMHbVDj2jLhGAazth62V-51">
          <mxGeometry y="52" width="330" height="8" as="geometry" />
        </mxCell>
        <mxCell id="pMHbVDj2jLhGAazth62V-54" value="+ ReadN(pCodTerm:string): nTerminal" style="text;strokeColor=none;fillColor=none;align=left;verticalAlign=top;spacingLeft=4;spacingRight=4;overflow=hidden;rotatable=0;points=[[0,0.5],[1,0.5]];portConstraint=eastwest;fontStyle=4" vertex="1" parent="pMHbVDj2jLhGAazth62V-51">
          <mxGeometry y="60" width="330" height="26" as="geometry" />
        </mxCell>
        <mxCell id="pMHbVDj2jLhGAazth62V-55" value="+ CreateN(pNterminal:NationalTerminal)" style="text;strokeColor=none;fillColor=none;align=left;verticalAlign=top;spacingLeft=4;spacingRight=4;overflow=hidden;rotatable=0;points=[[0,0.5],[1,0.5]];portConstraint=eastwest;fontStyle=4" vertex="1" parent="pMHbVDj2jLhGAazth62V-51">
          <mxGeometry y="86" width="330" height="26" as="geometry" />
        </mxCell>
        <mxCell id="pMHbVDj2jLhGAazth62V-56" value="+ UpdateN(pNterminal:NationalTerminal)" style="text;strokeColor=none;fillColor=none;align=left;verticalAlign=top;spacingLeft=4;spacingRight=4;overflow=hidden;rotatable=0;points=[[0,0.5],[1,0.5]];portConstraint=eastwest;fontStyle=4" vertex="1" parent="pMHbVDj2jLhGAazth62V-51">
          <mxGeometry y="112" width="330" height="26" as="geometry" />
        </mxCell>
        <mxCell id="pMHbVDj2jLhGAazth62V-57" value="+ DeleteN(pNterminal:NationalTerminal)" style="text;strokeColor=none;fillColor=none;align=left;verticalAlign=top;spacingLeft=4;spacingRight=4;overflow=hidden;rotatable=0;points=[[0,0.5],[1,0.5]];portConstraint=eastwest;fontStyle=4" vertex="1" parent="pMHbVDj2jLhGAazth62V-51">
          <mxGeometry y="138" width="330" height="26" as="geometry" />
        </mxCell>
        <mxCell id="pMHbVDj2jLhGAazth62V-58" value="+ ListNterminals () : Lista de Terminales Nacionales" style="text;strokeColor=none;fillColor=none;align=left;verticalAlign=top;spacingLeft=4;spacingRight=4;overflow=hidden;rotatable=0;points=[[0,0.5],[1,0.5]];portConstraint=eastwest;fontStyle=4" vertex="1" parent="pMHbVDj2jLhGAazth62V-51">
          <mxGeometry y="164" width="330" height="26" as="geometry" />
        </mxCell>
        <mxCell id="pMHbVDj2jLhGAazth62V-59" value="+ ReadI(pCodTerm:string): iTerminal" style="text;strokeColor=none;fillColor=none;align=left;verticalAlign=top;spacingLeft=4;spacingRight=4;overflow=hidden;rotatable=0;points=[[0,0.5],[1,0.5]];portConstraint=eastwest;fontStyle=4" vertex="1" parent="pMHbVDj2jLhGAazth62V-51">
          <mxGeometry y="190" width="330" height="26" as="geometry" />
        </mxCell>
        <mxCell id="pMHbVDj2jLhGAazth62V-60" value="+ CreateI(pIterminal:InternationalTerminal)" style="text;strokeColor=none;fillColor=none;align=left;verticalAlign=top;spacingLeft=4;spacingRight=4;overflow=hidden;rotatable=0;points=[[0,0.5],[1,0.5]];portConstraint=eastwest;fontStyle=4" vertex="1" parent="pMHbVDj2jLhGAazth62V-51">
          <mxGeometry y="216" width="330" height="26" as="geometry" />
        </mxCell>
        <mxCell id="pMHbVDj2jLhGAazth62V-61" value="+ UpdateI(pIterminal:InternationalTerminal)" style="text;strokeColor=none;fillColor=none;align=left;verticalAlign=top;spacingLeft=4;spacingRight=4;overflow=hidden;rotatable=0;points=[[0,0.5],[1,0.5]];portConstraint=eastwest;fontStyle=4" vertex="1" parent="pMHbVDj2jLhGAazth62V-51">
          <mxGeometry y="242" width="330" height="26" as="geometry" />
        </mxCell>
        <mxCell id="pMHbVDj2jLhGAazth62V-62" value="+ DeleteI(pIterminal:InternationalTerminal)" style="text;strokeColor=none;fillColor=none;align=left;verticalAlign=top;spacingLeft=4;spacingRight=4;overflow=hidden;rotatable=0;points=[[0,0.5],[1,0.5]];portConstraint=eastwest;fontStyle=4" vertex="1" parent="pMHbVDj2jLhGAazth62V-51">
          <mxGeometry y="268" width="330" height="26" as="geometry" />
        </mxCell>
        <mxCell id="pMHbVDj2jLhGAazth62V-63" value="+ ListIterminals () : Lista de Terminales Internacionales" style="text;strokeColor=none;fillColor=none;align=left;verticalAlign=top;spacingLeft=4;spacingRight=4;overflow=hidden;rotatable=0;points=[[0,0.5],[1,0.5]];portConstraint=eastwest;fontStyle=4" vertex="1" parent="pMHbVDj2jLhGAazth62V-51">
          <mxGeometry y="294" width="330" height="26" as="geometry" />
        </mxCell>
        <mxCell id="pMHbVDj2jLhGAazth62V-64" value="+ Read(pCodeTerminal:string): Terminal" style="text;strokeColor=none;fillColor=none;align=left;verticalAlign=top;spacingLeft=4;spacingRight=4;overflow=hidden;rotatable=0;points=[[0,0.5],[1,0.5]];portConstraint=eastwest;fontStyle=4" vertex="1" parent="pMHbVDj2jLhGAazth62V-51">
          <mxGeometry y="320" width="330" height="26" as="geometry" />
        </mxCell>
        <mxCell id="pMHbVDj2jLhGAazth62V-67" value="Listar Terminales" style="swimlane;fontStyle=1;align=center;verticalAlign=top;childLayout=stackLayout;horizontal=1;startSize=26;horizontalStack=0;resizeParent=1;resizeParentMax=0;resizeLast=0;collapsible=1;marginBottom=0;" vertex="1" parent="1">
          <mxGeometry x="-580" y="270" width="400" height="86" as="geometry" />
        </mxCell>
        <mxCell id="pMHbVDj2jLhGAazth62V-68" value=" " style="text;strokeColor=none;fillColor=none;align=left;verticalAlign=top;spacingLeft=4;spacingRight=4;overflow=hidden;rotatable=0;points=[[0,0.5],[1,0.5]];portConstraint=eastwest;" vertex="1" parent="pMHbVDj2jLhGAazth62V-67">
          <mxGeometry y="26" width="400" height="26" as="geometry" />
        </mxCell>
        <mxCell id="pMHbVDj2jLhGAazth62V-69" value="" style="line;strokeWidth=1;fillColor=none;align=left;verticalAlign=middle;spacingTop=-1;spacingLeft=3;spacingRight=3;rotatable=0;labelPosition=right;points=[];portConstraint=eastwest;" vertex="1" parent="pMHbVDj2jLhGAazth62V-67">
          <mxGeometry y="52" width="400" height="8" as="geometry" />
        </mxCell>
        <mxCell id="pMHbVDj2jLhGAazth62V-70" value="# Page_Load (sender : object, e : EventArgs)" style="text;strokeColor=none;fillColor=none;align=left;verticalAlign=top;spacingLeft=4;spacingRight=4;overflow=hidden;rotatable=0;points=[[0,0.5],[1,0.5]];portConstraint=eastwest;" vertex="1" parent="pMHbVDj2jLhGAazth62V-67">
          <mxGeometry y="60" width="400" height="26" as="geometry" />
        </mxCell>
        <mxCell id="pMHbVDj2jLhGAazth62V-84" value="Mantenimiento Terminal Internacional" style="swimlane;fontStyle=1;align=center;verticalAlign=top;childLayout=stackLayout;horizontal=1;startSize=26;horizontalStack=0;resizeParent=1;resizeParentMax=0;resizeLast=0;collapsible=1;marginBottom=0;" vertex="1" parent="1">
          <mxGeometry x="-580" y="430" width="400" height="216" as="geometry" />
        </mxCell>
        <mxCell id="pMHbVDj2jLhGAazth62V-85" value=" " style="text;strokeColor=none;fillColor=none;align=left;verticalAlign=top;spacingLeft=4;spacingRight=4;overflow=hidden;rotatable=0;points=[[0,0.5],[1,0.5]];portConstraint=eastwest;" vertex="1" parent="pMHbVDj2jLhGAazth62V-84">
          <mxGeometry y="26" width="400" height="26" as="geometry" />
        </mxCell>
        <mxCell id="pMHbVDj2jLhGAazth62V-86" value="" style="line;strokeWidth=1;fillColor=none;align=left;verticalAlign=middle;spacingTop=-1;spacingLeft=3;spacingRight=3;rotatable=0;labelPosition=right;points=[];portConstraint=eastwest;" vertex="1" parent="pMHbVDj2jLhGAazth62V-84">
          <mxGeometry y="52" width="400" height="8" as="geometry" />
        </mxCell>
        <mxCell id="pMHbVDj2jLhGAazth62V-87" value="# Page_Load (sender : object, e : EventArgs)" style="text;strokeColor=none;fillColor=none;align=left;verticalAlign=top;spacingLeft=4;spacingRight=4;overflow=hidden;rotatable=0;points=[[0,0.5],[1,0.5]];portConstraint=eastwest;" vertex="1" parent="pMHbVDj2jLhGAazth62V-84">
          <mxGeometry y="60" width="400" height="26" as="geometry" />
        </mxCell>
        <mxCell id="pMHbVDj2jLhGAazth62V-88" value="- CleanForm()" style="text;strokeColor=none;fillColor=none;align=left;verticalAlign=top;spacingLeft=4;spacingRight=4;overflow=hidden;rotatable=0;points=[[0,0.5],[1,0.5]];portConstraint=eastwest;" vertex="1" parent="pMHbVDj2jLhGAazth62V-84">
          <mxGeometry y="86" width="400" height="26" as="geometry" />
        </mxCell>
        <mxCell id="pMHbVDj2jLhGAazth62V-89" value="# btnSearch_Click(sender : object, e : EventArgs)" style="text;strokeColor=none;fillColor=none;align=left;verticalAlign=top;spacingLeft=4;spacingRight=4;overflow=hidden;rotatable=0;points=[[0,0.5],[1,0.5]];portConstraint=eastwest;" vertex="1" parent="pMHbVDj2jLhGAazth62V-84">
          <mxGeometry y="112" width="400" height="26" as="geometry" />
        </mxCell>
        <mxCell id="pMHbVDj2jLhGAazth62V-90" value="# btnCreate_Click(sender : object, e : EventArgs)" style="text;strokeColor=none;fillColor=none;align=left;verticalAlign=top;spacingLeft=4;spacingRight=4;overflow=hidden;rotatable=0;points=[[0,0.5],[1,0.5]];portConstraint=eastwest;" vertex="1" parent="pMHbVDj2jLhGAazth62V-84">
          <mxGeometry y="138" width="400" height="26" as="geometry" />
        </mxCell>
        <mxCell id="pMHbVDj2jLhGAazth62V-91" value="# btnUpdate_Click(sender : object, e : EventArgs)" style="text;strokeColor=none;fillColor=none;align=left;verticalAlign=top;spacingLeft=4;spacingRight=4;overflow=hidden;rotatable=0;points=[[0,0.5],[1,0.5]];portConstraint=eastwest;" vertex="1" parent="pMHbVDj2jLhGAazth62V-84">
          <mxGeometry y="164" width="400" height="26" as="geometry" />
        </mxCell>
        <mxCell id="pMHbVDj2jLhGAazth62V-92" value="# btnDelete_Click(sender : object, e : EventArgs)" style="text;strokeColor=none;fillColor=none;align=left;verticalAlign=top;spacingLeft=4;spacingRight=4;overflow=hidden;rotatable=0;points=[[0,0.5],[1,0.5]];portConstraint=eastwest;" vertex="1" parent="pMHbVDj2jLhGAazth62V-84">
          <mxGeometry y="190" width="400" height="26" as="geometry" />
        </mxCell>
        <mxCell id="pMHbVDj2jLhGAazth62V-93" value="Mantenimiento Companias" style="swimlane;fontStyle=1;align=center;verticalAlign=top;childLayout=stackLayout;horizontal=1;startSize=26;horizontalStack=0;resizeParent=1;resizeParentMax=0;resizeLast=0;collapsible=1;marginBottom=0;" vertex="1" parent="1">
          <mxGeometry x="-1323" y="646" width="400" height="216" as="geometry" />
        </mxCell>
        <mxCell id="pMHbVDj2jLhGAazth62V-94" value=" " style="text;strokeColor=none;fillColor=none;align=left;verticalAlign=top;spacingLeft=4;spacingRight=4;overflow=hidden;rotatable=0;points=[[0,0.5],[1,0.5]];portConstraint=eastwest;" vertex="1" parent="pMHbVDj2jLhGAazth62V-93">
          <mxGeometry y="26" width="400" height="26" as="geometry" />
        </mxCell>
        <mxCell id="pMHbVDj2jLhGAazth62V-95" value="" style="line;strokeWidth=1;fillColor=none;align=left;verticalAlign=middle;spacingTop=-1;spacingLeft=3;spacingRight=3;rotatable=0;labelPosition=right;points=[];portConstraint=eastwest;" vertex="1" parent="pMHbVDj2jLhGAazth62V-93">
          <mxGeometry y="52" width="400" height="8" as="geometry" />
        </mxCell>
        <mxCell id="pMHbVDj2jLhGAazth62V-96" value="# Page_Load (sender : object, e : EventArgs)" style="text;strokeColor=none;fillColor=none;align=left;verticalAlign=top;spacingLeft=4;spacingRight=4;overflow=hidden;rotatable=0;points=[[0,0.5],[1,0.5]];portConstraint=eastwest;" vertex="1" parent="pMHbVDj2jLhGAazth62V-93">
          <mxGeometry y="60" width="400" height="26" as="geometry" />
        </mxCell>
        <mxCell id="pMHbVDj2jLhGAazth62V-97" value="- CleanForm()" style="text;strokeColor=none;fillColor=none;align=left;verticalAlign=top;spacingLeft=4;spacingRight=4;overflow=hidden;rotatable=0;points=[[0,0.5],[1,0.5]];portConstraint=eastwest;" vertex="1" parent="pMHbVDj2jLhGAazth62V-93">
          <mxGeometry y="86" width="400" height="26" as="geometry" />
        </mxCell>
        <mxCell id="pMHbVDj2jLhGAazth62V-98" value="# btnSearch_Click(sender : object, e : EventArgs)" style="text;strokeColor=none;fillColor=none;align=left;verticalAlign=top;spacingLeft=4;spacingRight=4;overflow=hidden;rotatable=0;points=[[0,0.5],[1,0.5]];portConstraint=eastwest;" vertex="1" parent="pMHbVDj2jLhGAazth62V-93">
          <mxGeometry y="112" width="400" height="26" as="geometry" />
        </mxCell>
        <mxCell id="pMHbVDj2jLhGAazth62V-99" value="# btnCreate_Click(sender : object, e : EventArgs)" style="text;strokeColor=none;fillColor=none;align=left;verticalAlign=top;spacingLeft=4;spacingRight=4;overflow=hidden;rotatable=0;points=[[0,0.5],[1,0.5]];portConstraint=eastwest;" vertex="1" parent="pMHbVDj2jLhGAazth62V-93">
          <mxGeometry y="138" width="400" height="26" as="geometry" />
        </mxCell>
        <mxCell id="pMHbVDj2jLhGAazth62V-100" value="# btnUpdate_Click(sender : object, e : EventArgs)" style="text;strokeColor=none;fillColor=none;align=left;verticalAlign=top;spacingLeft=4;spacingRight=4;overflow=hidden;rotatable=0;points=[[0,0.5],[1,0.5]];portConstraint=eastwest;" vertex="1" parent="pMHbVDj2jLhGAazth62V-93">
          <mxGeometry y="164" width="400" height="26" as="geometry" />
        </mxCell>
        <mxCell id="pMHbVDj2jLhGAazth62V-101" value="# btnDelete_Click(sender : object, e : EventArgs)" style="text;strokeColor=none;fillColor=none;align=left;verticalAlign=top;spacingLeft=4;spacingRight=4;overflow=hidden;rotatable=0;points=[[0,0.5],[1,0.5]];portConstraint=eastwest;" vertex="1" parent="pMHbVDj2jLhGAazth62V-93">
          <mxGeometry y="190" width="400" height="26" as="geometry" />
        </mxCell>
        <mxCell id="pMHbVDj2jLhGAazth62V-103" value="" style="endArrow=open;dashed=1;html=1;startArrow=none;startFill=0;endFill=0;entryX=0.397;entryY=-0.011;entryDx=0;entryDy=0;entryPerimeter=0;fillColor=#1ba1e2;strokeColor=#006EAF;exitX=0.19;exitY=0;exitDx=0;exitDy=0;exitPerimeter=0;" edge="1" parent="1" source="eZbgHdstOL7PG3QPFfyQ-100">
          <mxGeometry width="50" height="50" relative="1" as="geometry">
            <mxPoint x="-1900" y="1746" as="sourcePoint" />
            <mxPoint x="-799" y="1754" as="targetPoint" />
            <Array as="points">
              <mxPoint x="-1900" y="1676" />
              <mxPoint x="-799" y="1676" />
            </Array>
          </mxGeometry>
        </mxCell>
        <mxCell id="pMHbVDj2jLhGAazth62V-104" value="" style="endArrow=open;dashed=1;html=1;startArrow=none;startFill=0;endFill=0;entryX=0.008;entryY=1.115;entryDx=0;entryDy=0;fillColor=#1ba1e2;strokeColor=#006EAF;exitX=0.041;exitY=1.077;exitDx=0;exitDy=0;exitPerimeter=0;entryPerimeter=0;" edge="1" parent="1" source="pMHbVDj2jLhGAazth62V-19" target="eZbgHdstOL7PG3QPFfyQ-83">
          <mxGeometry width="50" height="50" relative="1" as="geometry">
            <mxPoint x="-2006" y="2094" as="sourcePoint" />
            <mxPoint x="-905" y="2088" as="targetPoint" />
            <Array as="points">
              <mxPoint x="-1930" y="1970" />
              <mxPoint x="-1420" y="1970" />
            </Array>
          </mxGeometry>
        </mxCell>
        <mxCell id="pMHbVDj2jLhGAazth62V-105" value="" style="endArrow=open;dashed=1;html=1;startArrow=none;startFill=0;endFill=0;entryX=0;entryY=0.5;entryDx=0;entryDy=0;fillColor=#1ba1e2;strokeColor=#006EAF;exitX=0.618;exitY=0.919;exitDx=0;exitDy=0;exitPerimeter=0;" edge="1" parent="1" source="pMHbVDj2jLhGAazth62V-66" target="pMHbVDj2jLhGAazth62V-63">
          <mxGeometry width="50" height="50" relative="1" as="geometry">
            <mxPoint x="-1765.5" y="1384" as="sourcePoint" />
            <mxPoint x="-664.5" y="1378" as="targetPoint" />
            <Array as="points">
              <mxPoint x="-1765.5" y="1300" />
              <mxPoint x="-664.5" y="1300" />
            </Array>
          </mxGeometry>
        </mxCell>
        <mxCell id="pMHbVDj2jLhGAazth62V-106" value="" style="endArrow=open;dashed=1;html=1;startArrow=none;startFill=0;endFill=0;entryX=0.882;entryY=0.022;entryDx=0;entryDy=0;fillColor=#1ba1e2;strokeColor=#006EAF;exitX=0.19;exitY=0;exitDx=0;exitDy=0;exitPerimeter=0;entryPerimeter=0;" edge="1" parent="1" target="eZbgHdstOL7PG3QPFfyQ-146">
          <mxGeometry width="50" height="50" relative="1" as="geometry">
            <mxPoint x="-1800" y="1034" as="sourcePoint" />
            <mxPoint x="-699" y="1028" as="targetPoint" />
            <Array as="points">
              <mxPoint x="-1800" y="990" />
              <mxPoint x="-940" y="990" />
            </Array>
          </mxGeometry>
        </mxCell>
        <mxCell id="pMHbVDj2jLhGAazth62V-107" value="" style="endArrow=none;dashed=1;html=1;strokeWidth=1;entryX=0;entryY=0.5;entryDx=0;entryDy=0;startArrow=open;startFill=0;exitX=0;exitY=0;exitDx=0;exitDy=0;" edge="1" parent="1" source="eZbgHdstOL7PG3QPFfyQ-138" target="eZbgHdstOL7PG3QPFfyQ-244">
          <mxGeometry width="50" height="50" relative="1" as="geometry">
            <mxPoint x="-2158" y="768" as="sourcePoint" />
            <mxPoint x="-2160" y="480" as="targetPoint" />
            <Array as="points">
              <mxPoint x="-2150" y="509" />
            </Array>
          </mxGeometry>
        </mxCell>
        <mxCell id="pMHbVDj2jLhGAazth62V-108" value="" style="endArrow=none;dashed=1;html=1;strokeWidth=1;entryX=0;entryY=0.5;entryDx=0;entryDy=0;startArrow=open;startFill=0;exitX=0;exitY=0;exitDx=0;exitDy=0;" edge="1" parent="1">
          <mxGeometry width="50" height="50" relative="1" as="geometry">
            <mxPoint x="-1368" y="1074.5" as="sourcePoint" />
            <mxPoint x="-1338" y="543.5" as="targetPoint" />
            <Array as="points">
              <mxPoint x="-1428" y="543.5" />
            </Array>
          </mxGeometry>
        </mxCell>
        <mxCell id="pMHbVDj2jLhGAazth62V-109" value="" style="endArrow=none;dashed=1;html=1;strokeWidth=1;entryX=0;entryY=0.5;entryDx=0;entryDy=0;startArrow=open;startFill=0;exitX=0;exitY=0.538;exitDx=0;exitDy=0;exitPerimeter=0;" edge="1" parent="1" source="pMHbVDj2jLhGAazth62V-55">
          <mxGeometry width="50" height="50" relative="1" as="geometry">
            <mxPoint x="-610" y="1087.5" as="sourcePoint" />
            <mxPoint x="-580" y="556.5" as="targetPoint" />
            <Array as="points">
              <mxPoint x="-640" y="557" />
            </Array>
          </mxGeometry>
        </mxCell>
        <mxCell id="pMHbVDj2jLhGAazth62V-110" value="" style="endArrow=none;dashed=1;html=1;strokeWidth=1;entryX=0;entryY=0.5;entryDx=0;entryDy=0;startArrow=open;startFill=0;exitX=0;exitY=0.5;exitDx=0;exitDy=0;" edge="1" parent="1" source="pMHbVDj2jLhGAazth62V-60">
          <mxGeometry width="50" height="50" relative="1" as="geometry">
            <mxPoint x="-590" y="830" as="sourcePoint" />
            <mxPoint x="-580" y="306.5" as="targetPoint" />
            <Array as="points">
              <mxPoint x="-700" y="1170" />
              <mxPoint x="-680" y="580" />
              <mxPoint x="-670" y="306.5" />
            </Array>
          </mxGeometry>
        </mxCell>
      </root>
    </mxGraphModel>
  </diagram>
</mxfile>
